<?xml version="1.0" standalone="no"?>
<!DOCTYPE svg PUBLIC "-//W3C//DTD SVG 20010904//EN"
 "http://www.w3.org/TR/2001/REC-SVG-20010904/DTD/svg10.dtd">
<svg version="1.0" xmlns="http://www.w3.org/2000/svg"
 width="801.000000pt" height="801.000000pt" viewBox="0 0 801.000000 801.000000"
 preserveAspectRatio="xMidYMid meet">

<g transform="translate(0.000000,801.000000) scale(0.100000,-0.100000)"
fill="#000000" stroke="none">
<path d="M1723 6064 c-3 -8 -3 -68 -1 -132 5 -98 11 -131 36 -200 211 -571
1251 -1085 3122 -1543 305 -74 378 -98 510 -165 271 -137 417 -348 396 -571
-6 -76 -52 -216 -102 -315 -39 -79 -123 -205 -154 -233 -28 -25 -26 -63 3 -69
255 -48 292 -53 312 -46 28 11 132 133 206 243 150 223 218 446 206 680 -5
115 -34 232 -79 322 -97 191 -317 391 -528 480 -181 77 -267 100 -1295 350
-1313 319 -2013 633 -2490 1114 -97 98 -129 118 -142 85z"/>
<path d="M1723 5324 c-3 -9 -3 -56 0 -105 27 -420 440 -819 1167 -1127 371
-157 681 -252 1363 -417 545 -132 778 -233 940 -404 44 -47 77 -95 103 -150
24 -48 45 -80 55 -80 18 -1 85 122 124 229 21 56 28 95 29 155 1 105 -28 169
-117 252 -117 109 -250 163 -707 288 -1131 309 -1576 456 -2007 665 -271 131
-442 236 -608 370 -94 77 -217 201 -273 278 -48 65 -59 72 -69 46z"/>
<path d="M1723 4604 c-9 -23 15 -180 39 -249 63 -188 187 -358 373 -514 360
-299 926 -544 1732 -747 l223 -56 94 27 c250 70 388 61 661 -45 83 -32 174
-65 203 -74 48 -14 54 -14 59 0 14 38 -77 162 -170 230 -127 94 -295 156 -642
239 -603 143 -904 225 -1170 320 -637 227 -1066 494 -1300 808 -57 77 -88 96
-102 61z"/>
<path d="M1731 3941 c-19 -12 -8 -160 19 -258 82 -295 288 -498 729 -715 l183
-91 72 18 c109 28 283 84 344 111 44 19 53 27 50 46 -3 19 -26 30 -168 78
-538 183 -876 399 -1122 718 -44 56 -83 102 -86 102 -4 0 -13 -4 -21 -9z"/>
<path d="M3350 2826 c-47 -12 -123 -39 -170 -58 -171 -72 -464 -149 -710 -188
-229 -36 -436 -79 -558 -116 -150 -46 -179 -60 -199 -98 -19 -36 -83 -224 -83
-243 0 -11 429 -13 2369 -13 1531 0 2372 3 2376 10 9 14 -93 244 -118 268 -55
51 -318 121 -682 182 -290 48 -545 110 -701 170 -246 95 -274 103 -379 108
-133 6 -234 -15 -345 -70 -66 -34 -93 -53 -120 -90 l-34 -47 -51 54 c-124 133
-379 189 -595 131z"/>
</g>
</svg>
